<?xml version="1.0" encoding="utf-8"?>
<!-- Generator: Adobe Illustrator 23.0.1, SVG Export Plug-In . SVG Version: 6.00 Build 0)  -->
<svg version="1.1" id="Layer_1" xmlns="http://www.w3.org/2000/svg" xmlns:xlink="http://www.w3.org/1999/xlink" x="0px" y="0px"
	 viewBox="0 0 97.45 104.07" style="enable-background:new 0 0 97.45 104.07;" xml:space="preserve">
<style type="text/css">
	.st0{fill:#FDBA38;}
</style>
<g>
	<path class="st0" d="M71.95,6.61c8.18,4.41,14.48,10.53,18.89,18.37c4.41,7.84,6.61,16.76,6.61,26.75c0,9.9-2.21,18.81-6.61,26.75
		c-4.41,7.94-10.71,14.18-18.89,18.74c-8.18,4.56-17.71,6.83-28.59,6.83H0V0h43.36C54.24,0,63.77,2.21,71.95,6.61z M57.91,68.94
		c4.31-4.02,6.47-9.75,6.47-17.2c0-7.45-2.16-13.18-6.47-17.2c-4.31-4.02-10.14-6.03-17.49-6.03h-7.79v46.45h7.79
		C47.77,74.96,53.6,72.96,57.91,68.94z"/>
</g>
</svg>
